# xmcd
#
# Track frame offsets:
#	177
#	13481
#	28697
#	40969
#	61106
#	79168
#	99237
#	123521
#	143115
#	156587
#	164458
#	180690
#	204268
#	216533
#	242123
#
# Disc length: 3439 seconds
#
# Revision: 0
# Processed by: cddbd v1.5.2PL0 Copyright (c) Steve Scherf et al.
# Submitted via: dBpowerAMP V4.0
#
DISCID=d70d6d0f
DTITLE=boogielicious - BOOGIE ALIVE
DYEAR=2013
DGENRE=Blues
TTITLE0=Boogie Woogie Man
TTITLE1=Barrelhouse Boogie
TTITLE2=AA Booghee
TTITLE3=Flip Flop and Fly
TTITLE4=Swingy Thingy
TTITLE5=Roll'em Pete
TTITLE6=Midnight Boogie
TTITLE7=Dadlow
TTITLE8=Route 88
TTITLE9=Choking Blues
TTITLE10=Boogie Woogie Stomp
TTITLE11=Summertime
TTITLE12=Kansas City
TTITLE13=Friends
TTITLE14=Chitlins Con Carne
EXTD=
EXTT0=
EXTT1=
EXTT2=
EXTT3=
EXTT4=
EXTT5=
EXTT6=
EXTT7=
EXTT8=
EXTT9=
EXTT10=
EXTT11=
EXTT12=
EXTT13=
EXTT14=
PLAYORDER=
